Coordinates
version=1
nRows=9
nColumns=24
inDegrees=yes

Units are S.I. units (second, meters, Newtons, ...)
Angles are in degrees.

endheader
time	pelvis_tilt	pelvis_list	pelvis_rotation	pelvis_tx	pelvis_ty	pelvis_tz	hip_flexion_r	hip_adduction_r	hip_rotation_r	knee_angle_r	ankle_angle_r	subtalar_angle_r	mtp_angle_r	hip_flexion_l	hip_adduction_l	hip_rotation_l	knee_angle_l	ankle_angle_l	subtalar_angle_l	mtp_angle_l	lumbar_extension	lumbar_bending	lumbar_rotation
      1.27516667	     -6.36417868	      3.43601432	     -3.56389322	      0.22628038	      0.90436407	      0.30791549	     21.32183733	     -6.99982092	    -10.09090130	    -70.41785734	     -4.49048247	      2.03294785	     10.15234314	     19.01239585	      6.14232694	     -5.17840379	    -18.11285050	      6.35587901	     -7.30073354	      4.61413038	      1.20822816	     -7.33501911	      3.81150568
      1.27933333	     -6.38494633	      3.29061099	     -3.42133380	      0.23139760	      0.90545485	      0.30761019	     21.94190974	     -6.82933537	    -10.27582905	    -70.08020947	     -3.80487445	      1.94875790	     10.13461273	     18.42009678	      6.08360140	     -4.99809837	    -17.62416344	      6.39962954	     -7.20518540	      4.61553955	      1.16942655	     -7.16042481	      3.62933834
      1.28350000	     -6.36453796	      3.14713844	     -3.26918986	      0.23657207	      0.90661365	      0.30727186	     22.48394681	     -6.67313104	    -10.47346915	    -69.65070650	     -3.15908481	      2.00598653	     10.09070875	     17.75135710	      6.03981260	     -4.76711109	    -17.07124588	      6.44672755	     -7.18836842	      4.61331520	      1.10674528	     -7.01082514	      3.26626569
      1.28766667	     -6.36221243	      2.98574916	     -3.10737062	      0.24168303	      0.90770540	      0.30693171	     23.03492054	     -6.48834363	    -10.67377590	    -69.16096534	     -2.54122483	      1.97771933	     10.06267908	     17.12248854	      5.96951823	     -4.53706364	    -16.55270104	      6.47686155	     -7.11955808	      4.61133236	      1.03284217	     -6.82097309	      3.03182433
      1.29183333	     -6.32785996	      2.81988935	     -2.93141658	      0.24683243	      0.90884699	      0.30657364	     23.51569870	     -6.30515593	    -10.88834482	    -68.57868948	     -1.95925304	      1.99877660	     10.02857528	     16.44630155	      5.89734832	     -4.29546323	    -16.00779939	      6.50732131	     -7.08474488	      4.60725235	      0.94823269	     -6.64483325	      2.73160373
      1.29600000	     -6.28616746	      2.65973932	     -2.74810154	      0.25198396	      0.90995253	      0.30618964	     23.97427600	     -6.13687602	    -11.11320271	    -67.94311542	     -1.41250346	      2.00623951	      9.98402393	     15.75799250	      5.83153341	     -4.04355435	    -15.44988886	      6.51784869	     -7.06734437	      4.59967495	      0.86021312	     -6.45344261	      2.41273788
      1.30016667	     -6.23995175	      2.47929325	     -2.55086250	      0.25710518	      0.91104472	      0.30581079	     24.40208534	     -5.93847359	    -11.34033233	    -67.22654439	     -0.89276176	      2.01491301	      9.94468151	     15.07479472	      5.73927553	     -3.77825034	    -14.90888560	      6.53074413	     -7.02817933	      4.59199849	      0.74981595	     -6.26485369	      2.13555883
      1.30433333	     -6.18603366	      2.32258352	     -2.34799936	      0.26222377	      0.91209604	      0.30540263	     24.81130618	     -5.77538450	    -11.56871666	    -66.46537586	     -0.39048457	      2.01729077	      9.87249580	     14.37354568	      5.67478309	     -3.48863040	    -14.33775521	      6.49589305	     -7.04228346	      4.57425701	      0.63434693	     -6.08544627	      1.77127405
      1.30850000	     -6.11312593	      2.13186487	     -2.13828949	      0.26734098	      0.91315401	      0.30499660	     25.16793360	     -5.57299829	    -11.80646938	    -65.61493895	      0.05053910	      2.04598772	      9.83130442	     13.66452200	      5.56362205	     -3.22749909	    -13.79780967	      6.53762154	     -6.98311065	      4.56406668	      0.49859136	     -5.85642294	      1.53659333
